<svg xmlns="http://www.w3.org/2000/svg" viewBox="0 0 64 64"><defs><style>.cls-1{isolation:isolate;}.cls-2{fill:#ffcc2c;}.cls-3{fill:#37b44a;}.cls-4{fill:#dc3527;}.cls-5,.cls-6{opacity:0.25;}.cls-5{mix-blend-mode:multiply;}.cls-7{fill:#010101;}.cls-8{mix-blend-mode:overlay;}.cls-9{fill:#fff;}.cls-10{fill:none;stroke:#010101;stroke-linecap:round;stroke-linejoin:round;stroke-width:2px;}</style></defs><title>Icon Color11</title><g class="cls-1"><g id="Color"><g id="Color-2" data-name="Color"><path class="cls-2" d="M20.38,60.14H17.46a1.34,1.34,0,0,1-1.34-1.34V5.26a1.34,1.34,0,0,1,1.34-1.34h2.92a1.34,1.34,0,0,1,1.34,1.34V58.8A1.34,1.34,0,0,1,20.38,60.14Z"/><path class="cls-3" d="M58.79,21.14A13.06,13.06,0,0,1,45.73,34.19c-.29,0-.57,0-.85,0a13,13,0,0,1-12-10.91,13.35,13.35,0,0,1-.17-2.11,13,13,0,0,1,.82-4.55,13.11,13.11,0,0,1,3.72-5.34l.07-.25,2.13-8,.93.93,4.18,4.18.35,0c.28,0,.57,0,.85,0A13.05,13.05,0,0,1,58.79,21.14Z"/><path class="cls-2" d="M44.88,5.26V8.11l-.35,0L40.35,3.95a1.24,1.24,0,0,1,.27,0h2.92A1.34,1.34,0,0,1,44.88,5.26Z"/><path class="cls-2" d="M39.29,32.48a13,13,0,0,0,5.59,1.67V58.8a1.34,1.34,0,0,1-1.34,1.34H40.62a1.34,1.34,0,0,1-1.33-1.34Z"/><path class="cls-2" d="M37.29,11l-.07.25a13.11,13.11,0,0,0-3.72,5.34H23.1a1.34,1.34,0,0,1-1.34-1.34V12.32A1.33,1.33,0,0,1,23.1,11Z"/><path class="cls-2" d="M35.19,28.83H23.1a1.34,1.34,0,0,1-1.34-1.34V24.57a1.33,1.33,0,0,1,1.34-1.33h9.75A13,13,0,0,0,35.19,28.83Z"/><path class="cls-2" d="M39.29,36.83v2.92A1.34,1.34,0,0,1,38,41.09H23.1a1.34,1.34,0,0,1-1.34-1.34V36.83a1.34,1.34,0,0,1,1.34-1.34H38A1.34,1.34,0,0,1,39.29,36.83Z"/><path class="cls-2" d="M39.29,49.08V52A1.34,1.34,0,0,1,38,53.34H23.1A1.34,1.34,0,0,1,21.76,52V49.08a1.34,1.34,0,0,1,1.34-1.34H38A1.34,1.34,0,0,1,39.29,49.08Z"/><path class="cls-4" d="M52.67,25.62c-.07,1.37-.83,3.12-3.85,4.15H43.08s-9.63-3.85-3.14-11.93c0,0,.54,2.88,1.51,3.86a.43.43,0,0,0,.56,0c.44-.36,1.15-1.29.25-3.18,0,0-1.49-4.79,3.77-7.55a7.2,7.2,0,0,0,1.08,8,.17.17,0,0,0,.29-.09c.09-.72.67-2.22,4-2.92h0A8,8,0,0,0,52,23.17,4,4,0,0,1,52.67,25.62Z"/><path class="cls-2" d="M48.84,28.23a1.87,1.87,0,0,1-1,1.54H43.69c-1-.71-2.65-2.42-.43-5.17,0,0-.1,1.34.36,1.8a.2.2,0,0,0,.26,0c.21-.17.54-.6.11-1.48a2.66,2.66,0,0,1,1.42-3.52,3.85,3.85,0,0,0,.85,3.72.07.07,0,0,0,.13,0c0-.34.31-1,1.84-1.37h0a3.78,3.78,0,0,0,.29,3.36A1.89,1.89,0,0,1,48.84,28.23Z"/></g></g><g id="Shadow" class="cls-5"><g id="Shadow-2" data-name="Shadow" class="cls-6"><path class="cls-7" d="M19,58.8V5.26a1.34,1.34,0,0,1,1.34-1.34H17.47a1.34,1.34,0,0,0-1.34,1.34V58.8a1.34,1.34,0,0,0,1.34,1.34h2.84A1.34,1.34,0,0,1,19,58.8Z"/><path class="cls-7" d="M42.09,58.8V33.65a13.48,13.48,0,0,1-2.79-1.17V58.8a1.34,1.34,0,0,0,1.33,1.34h2.79A1.34,1.34,0,0,1,42.09,58.8Z"/><path class="cls-7" d="M24.86,14.83a1.34,1.34,0,0,1-1.34-1.34V11h-.41a1.33,1.33,0,0,0-1.34,1.33v2.92a1.34,1.34,0,0,0,1.34,1.34h10.4a13.31,13.31,0,0,1,.82-1.75Z"/><path class="cls-7" d="M25.05,26.89a1.34,1.34,0,0,1-1.34-1.34V23.24h-.6a1.33,1.33,0,0,0-1.34,1.33v2.92a1.34,1.34,0,0,0,1.34,1.34H35.2a14,14,0,0,1-1.15-1.94Z"/><path class="cls-7" d="M25.2,39a1.34,1.34,0,0,1-1.34-1.34V35.49H23.1a1.34,1.34,0,0,0-1.34,1.34v2.92a1.34,1.34,0,0,0,1.34,1.34H38a1.34,1.34,0,0,0,1.34-1.34V39Z"/><path class="cls-7" d="M25.16,51.27a1.34,1.34,0,0,1-1.34-1.34V47.74h-.73a1.34,1.34,0,0,0-1.34,1.34V52a1.34,1.34,0,0,0,1.34,1.34H37.94A1.34,1.34,0,0,0,39.28,52v-.73Z"/><path class="cls-7" d="M48.84,31.08c-.29,0-.57,0-.85,0A13,13,0,0,1,36,20.14,13.35,13.35,0,0,1,35.79,18a13,13,0,0,1,.82-4.55,13.11,13.11,0,0,1,3.72-5.34l.07-.25.82-3.07L40.36,4,39.43,3,37.3,11l-.07.25a13.11,13.11,0,0,0-3.72,5.34,13,13,0,0,0-.82,4.55,13.35,13.35,0,0,0,.17,2.11,13,13,0,0,0,12,10.91c.28,0,.56,0,.85,0a13,13,0,0,0,10.65-5.52A13.05,13.05,0,0,1,48.84,31.08Z"/></g></g><g id="Highlight" class="cls-8"><g id="Highlight-2" data-name="Highlight"><path class="cls-9" d="M20.38,3.92H18.44a1.34,1.34,0,0,1,1.34,1.34V58.8a1.34,1.34,0,0,1-1.34,1.34h1.94a1.34,1.34,0,0,0,1.34-1.34V5.26A1.34,1.34,0,0,0,20.38,3.92Z"/><path class="cls-9" d="M44.88,5.26V8.11l-.35,0L40.35,3.95a1.24,1.24,0,0,1,.27,0h2.92A1.34,1.34,0,0,1,44.88,5.26Z"/><path class="cls-9" d="M39.29,32.48v.9a13.06,13.06,0,0,0,3.59.77V58.8a1.34,1.34,0,0,1-1.34,1.34h2a1.34,1.34,0,0,0,1.34-1.34V34.15A12.84,12.84,0,0,1,39.29,32.48Z"/><path class="cls-9" d="M23.1,11a1.33,1.33,0,0,0-1.34,1.33V13H35.32l-.07.25a13.62,13.62,0,0,0-2.77,3.37h1a13.11,13.11,0,0,1,3.72-5.34l.07-.25Z"/><path class="cls-9" d="M31.18,24.92a12.87,12.87,0,0,0,1.32,3.92h2.69a13,13,0,0,1-2.34-5.59H23.1a1.33,1.33,0,0,0-1.34,1.33v.34Z"/><path class="cls-9" d="M38,35.49H23.1a1.34,1.34,0,0,0-1.34,1.34v.34H36.28a1.34,1.34,0,0,1,1.34,1.34v2.58H38a1.34,1.34,0,0,0,1.34-1.34V36.83A1.35,1.35,0,0,0,38,35.49Z"/><path class="cls-9" d="M38,47.74H23.1a1.34,1.34,0,0,0-1.34,1.34v.36h14.5a1.34,1.34,0,0,1,1.34,1.34v2.56H38A1.34,1.34,0,0,0,39.3,52V49.08A1.35,1.35,0,0,0,38,47.74Z"/><path class="cls-9" d="M45.73,8.07c-.28,0-.57,0-.85,0l-.32,0a13,13,0,0,1,.06,26,2.3,2.3,0,0,0,.26,0c.28,0,.56,0,.85,0a13.06,13.06,0,1,0,0-26.11Z"/><path class="cls-9" d="M42.21,8.14l.35,0c.28,0,.57,0,.85,0s.75,0,1.12.06L40.35,4,39.42,3l-.49,1.83Z"/></g></g><g id="Line"><g id="Line-2" data-name="Line"><path class="cls-10" d="M20.38,60.14H17.46a1.34,1.34,0,0,1-1.34-1.34V5.26a1.34,1.34,0,0,1,1.34-1.34h2.92a1.34,1.34,0,0,1,1.34,1.34V58.8A1.34,1.34,0,0,1,20.38,60.14Z"/><path class="cls-10" d="M58.79,21.14A13.06,13.06,0,0,1,45.73,34.19c-.29,0-.57,0-.85,0a13,13,0,0,1-12-10.91,13.35,13.35,0,0,1-.17-2.11,13,13,0,0,1,.82-4.55,13.11,13.11,0,0,1,3.72-5.34l.07-.25,2.13-8,.93.93,4.18,4.18.35,0c.28,0,.57,0,.85,0A13.05,13.05,0,0,1,58.79,21.14Z"/><path class="cls-10" d="M44.88,5.26V8.11l-.35,0L40.35,3.95a1.24,1.24,0,0,1,.27,0h2.92A1.34,1.34,0,0,1,44.88,5.26Z"/><path class="cls-10" d="M39.29,32.48a13,13,0,0,0,5.59,1.67V58.8a1.34,1.34,0,0,1-1.34,1.34H40.62a1.34,1.34,0,0,1-1.33-1.34Z"/><path class="cls-10" d="M37.29,11l-.07.25a13.11,13.11,0,0,0-3.72,5.34H23.1a1.34,1.34,0,0,1-1.34-1.34V12.32A1.33,1.33,0,0,1,23.1,11Z"/><path class="cls-10" d="M35.19,28.83H23.1a1.34,1.34,0,0,1-1.34-1.34V24.57a1.33,1.33,0,0,1,1.34-1.33h9.75A13,13,0,0,0,35.19,28.83Z"/><path class="cls-10" d="M39.29,36.83v2.92A1.34,1.34,0,0,1,38,41.09H23.1a1.34,1.34,0,0,1-1.34-1.34V36.83a1.34,1.34,0,0,1,1.34-1.34H38A1.34,1.34,0,0,1,39.29,36.83Z"/><path class="cls-10" d="M39.29,49.08V52A1.34,1.34,0,0,1,38,53.34H23.1A1.34,1.34,0,0,1,21.76,52V49.08a1.34,1.34,0,0,1,1.34-1.34H38A1.34,1.34,0,0,1,39.29,49.08Z"/><path class="cls-10" d="M52.67,25.62c-.07,1.37-.83,3.12-3.85,4.15H43.08s-9.63-3.85-3.14-11.93c0,0,.54,2.88,1.51,3.86a.43.43,0,0,0,.56,0c.44-.36,1.15-1.29.25-3.18,0,0-1.49-4.79,3.77-7.55a7.2,7.2,0,0,0,1.08,8,.17.17,0,0,0,.29-.09c.09-.72.67-2.22,4-2.92h0A8,8,0,0,0,52,23.17,4,4,0,0,1,52.67,25.62Z"/><path class="cls-10" d="M48.84,28.23a1.87,1.87,0,0,1-1,1.54H43.69c-1-.71-2.65-2.42-.43-5.17,0,0-.1,1.34.36,1.8a.2.2,0,0,0,.26,0c.21-.17.54-.6.11-1.48a2.66,2.66,0,0,1,1.42-3.52,3.85,3.85,0,0,0,.85,3.72.07.07,0,0,0,.13,0c0-.34.31-1,1.84-1.37h0a3.78,3.78,0,0,0,.29,3.36A1.89,1.89,0,0,1,48.84,28.23Z"/></g></g></g></svg>